<svg width="32" height="31" viewBox="0 0 32 31" fill="none" xmlns="http://www.w3.org/2000/svg">
    <path d="M12.1125 11.9003C11.2625 11.0291 9.9875 11.0291 9.1375 11.9003C8.2875 12.7716 8.2875 14.0784 9.1375 14.9497L13.3875 19.3059C13.8125 19.7416 14.2375 19.9594 14.875 19.9594C15.5125 19.9594 15.9375 19.7416 16.3625 19.3059L31.2375 4.05906C32.0875 3.18781 32.0875 1.88093 31.2375 1.00968C30.3875 0.138435 29.1125 0.138435 28.2625 1.00968L14.875 14.7319L12.1125 11.9003Z" fill="#000000"/>
    <path d="M14.875 30.85C23.1625 30.85 29.75 24.0978 29.75 15.6031C29.75 14.2962 28.9 13.425 27.625 13.425C26.35 13.425 25.5 14.2962 25.5 15.6031C25.5 21.7019 20.825 26.4937 14.875 26.4937C8.925 26.4937 4.25 21.7019 4.25 15.6031C4.25 9.50437 8.925 4.7125 14.875 4.7125C16.15 4.7125 17.2125 4.93031 18.4875 5.36593C19.55 5.80156 20.825 5.14812 21.25 4.05906C21.675 2.97 21.0375 1.66312 19.975 1.2275C18.275 0.57406 16.575 0.356247 14.875 0.356247C6.5875 0.356247 0 7.10843 0 15.6031C0 24.0978 6.5875 30.85 14.875 30.85Z" fill="#000000"/>
</svg>
