<svg width="14" height="14" viewBox="0 0 14 14" fill="none" xmlns="http://www.w3.org/2000/svg">
    <path d="M13.125 2.625H10.5V0.875C10.5 0.642936 10.4078 0.420376 10.2437 0.256282C10.0796 0.0921872 9.85706 0 9.625 0L4.375 0C4.14294 0 3.92038 0.0921872 3.75628 0.256282C3.59219 0.420376 3.5 0.642936 3.5 0.875V2.625H0.875C0.642936 2.625 0.420376 2.71719 0.256282 2.88128C0.0921872 3.04538 0 3.26794 0 3.5C0 3.73206 0.0921872 3.95462 0.256282 4.11872C0.420376 4.28281 0.642936 4.375 0.875 4.375H13.125C13.3571 4.375 13.5796 4.28281 13.7437 4.11872C13.9078 3.95462 14 3.73206 14 3.5C14 3.26794 13.9078 3.04538 13.7437 2.88128C13.5796 2.71719 13.3571 2.625 13.125 2.625ZM5.25 2.625V1.75H8.75V2.625H5.25Z" fill="#212121"/>
    <path d="M1.79785 6.125L2.1916 13.2125C2.21337 13.4291 2.31508 13.6298 2.47687 13.7754C2.63867 13.921 2.84893 14.0011 3.0666 14H10.9416C11.1585 14 11.3677 13.9194 11.5286 13.7739C11.6894 13.6284 11.7905 13.4283 11.8122 13.2125L12.206 6.125H1.79785Z" fill="#212121"/>
</svg>
