<svg width="12" height="12" viewBox="0 0 12 12" fill="none" xmlns="http://www.w3.org/2000/svg">
    <path
        d="M11 10H1C0.734784 10 0.48043 10.1054 0.292893 10.2929C0.105357 10.4804 0 10.7348 0 11C0 11.2652 0.105357 11.5196 0.292893 11.7071C0.48043 11.8946 0.734784 12 1 12H11C11.2652 12 11.5196 11.8946 11.7071 11.7071C11.8946 11.5196 12 11.2652 12 11C12 10.7348 11.8946 10.4804 11.7071 10.2929C11.5196 10.1054 11.2652 10 11 10Z"
        fill="#212121"/>
    <path
        d="M5.49998 8.00041H6.49998C6.63259 8.00041 6.75977 7.94773 6.85353 7.85396C6.9473 7.76019 6.99998 7.63301 6.99998 7.50041V5.00041H9.49998C9.59597 5.00031 9.6899 4.97258 9.77055 4.92054C9.8512 4.8685 9.91518 4.79435 9.95482 4.70693C9.99447 4.61952 10.0081 4.52254 9.99414 4.42758C9.98016 4.33262 9.93914 4.24368 9.87598 4.17141L6.37598 0.171405C6.32773 0.120066 6.26948 0.0791523 6.20481 0.0511848C6.14014 0.0232174 6.07043 0.00878906 5.99998 0.00878906C5.92953 0.00878906 5.85982 0.0232174 5.79515 0.0511848C5.73048 0.0791523 5.67223 0.120066 5.62398 0.171405L2.12398 4.17141C2.06082 4.24368 2.0198 4.33262 2.00582 4.42758C1.99184 4.52254 2.00549 4.61952 2.04514 4.70693C2.08478 4.79435 2.14876 4.8685 2.22941 4.92054C2.31006 4.97258 2.40399 5.00031 2.49998 5.00041H4.99998V7.50041C4.99998 7.63301 5.05266 7.76019 5.14643 7.85396C5.24019 7.94773 5.36737 8.00041 5.49998 8.00041Z"
        fill="#212121"/>
</svg>
